<?xml version="1.0"?>
<svg xmlns="http://www.w3.org/2000/svg" viewBox="0 0 512 512" width="512" height="512"><g id="outline"><path d="M256,352a64,64,0,1,0-64-64A64.072,64.072,0,0,0,256,352Zm0-112a48,48,0,1,1-48,48A48.055,48.055,0,0,1,256,240Z"/><path d="M250.666,272.909a16.18,16.18,0,0,1,10.668,0,8,8,0,0,0,5.332-15.086,32.26,32.26,0,0,0-21.332,0,8,8,0,1,0,5.332,15.086Z"/><path d="M256,320a8,8,0,0,0,0-16,16.019,16.019,0,0,1-16-16,8,8,0,0,0-16,0A32.036,32.036,0,0,0,256,320Z"/><path d="M215.97,41.569a8,8,0,0,0-3.87-6.179c-25.36-15.138-53.842-21.76-80.193-18.647-27.134,3.2-48.826,16.276-61.08,36.806s-13.465,45.826-3.407,71.23c9.768,24.674,29.114,46.6,54.474,61.736a8,8,0,0,0,12.078-6.274l2.111-28.29,39.239-.09a8,8,0,0,0,7.384-11.035l-11.677-28.474,34.935-8.819a8,8,0,0,0,5.444-10.792L198.419,61.067l14.8-12.746A8,8,0,0,0,215.97,41.569ZM181.428,61.8l11.677,28.475L158.17,99.1a8,8,0,0,0-5.444,10.792l10.662,26-34.749.079a8,8,0,0,0-7.96,7.405l-1.642,22C81.458,137.277,65.95,92.937,84.565,61.749c11.686-19.577,34.313-29.778,60.072-29.778a114.3,114.3,0,0,1,49.339,11.808l-10.367,8.926A8,8,0,0,0,181.428,61.8Z"/><path d="M443.708,62.691c-9.78-21.816-29.8-37.325-56.378-43.668-25.812-6.16-54.87-2.9-81.82,9.182a8,8,0,0,0-4.616,5.974l-4.783,28.445a8,8,0,0,0,6.127,9.13l30.02,6.779L319.431,112.2A8,8,0,0,0,324.9,122.8l37.486,9.7-26.066,31.858a8,8,0,0,0,3.344,12.542l31.718,12.083a8,8,0,0,0,6.12-.176c26.951-12.081,48.718-31.6,61.293-54.973C451.744,109.774,453.488,84.509,443.708,62.691Zm-69.779,110.14L355.734,165.9l26.955-32.944a8,8,0,0,0-4.187-12.811l-40.937-10.6,12.929-33.937a8,8,0,0,0-5.714-10.652l-31.636-7.144,2.8-16.678c22.614-9.269,46.489-11.6,67.668-6.549,21.634,5.164,37.79,17.469,45.492,34.65C445.012,104.714,420.324,150.609,373.929,172.831Z"/><path d="M174.545,429.818h.1a4.037,4.037,0,0,1,3.912,3.059A84,84,0,0,0,259.735,496c1.173,0,2.355-.025,3.535-.075a83.846,83.846,0,0,0,79.8-77.657q.055-.789.095-1.571A24.033,24.033,0,0,1,358.7,395.452a93.1,93.1,0,0,0,9.282-170.092c-14.237-7.245-28.639-17.3-44.027-30.741C304.877,177.951,273.763,168,240.728,168c-44.233,0-83.281,17.581-97.166,43.749a115.064,115.064,0,0,1-13.71,20.878l-.131.157a27.988,27.988,0,0,1-7.254,6.14,102.553,102.553,0,0,0,52.078,190.894ZM130.6,252.7a44,44,0,0,0,11.4-9.666l.078-.094A130.363,130.363,0,0,0,157.7,219.249C168.708,198.5,202.852,184,240.728,184c29.275,0,56.455,8.474,72.7,22.668,16.395,14.322,31.866,25.1,47.3,32.952h0a77.1,77.1,0,0,1-7.678,140.862,40.033,40.033,0,0,0-25.868,35.4c-.022.421-.047.843-.077,1.271a67.847,67.847,0,0,1-64.515,62.784c-.958.04-1.908.06-2.86.06a67.94,67.94,0,0,1-65.66-51.034,20.018,20.018,0,0,0-19.425-15.146h-.1A86.553,86.553,0,0,1,130.6,252.7Z"/><path d="M167,393.421l8.352,3.2a8,8,0,0,0,5.723-14.942l-8.352-3.2A8,8,0,1,0,167,393.421Z"/><path d="M141.954,383.386a8,8,0,1,0,7.322-14.226,53.255,53.255,0,0,1-24.18-25.569,8,8,0,0,0-14.613,6.518A69.316,69.316,0,0,0,141.954,383.386Z"/><path d="M68.422,191.155A20.832,20.832,0,0,1,80,209.889V216a8,8,0,0,0,16,0v-6.111a36.742,36.742,0,0,0-20.422-33.044,8,8,0,0,0-7.156,14.31Z"/><path d="M240,152a8,8,0,0,0,8-8v-6.111a36.742,36.742,0,0,0-20.422-33.044,8,8,0,0,0-7.156,14.31A20.832,20.832,0,0,1,232,137.889V144A8,8,0,0,0,240,152Z"/><path d="M427.578,199.155a8,8,0,1,0-7.156-14.31A36.742,36.742,0,0,0,400,217.889V224a8,8,0,0,0,16,0v-6.111A20.832,20.832,0,0,1,427.578,199.155Z"/><path d="M288,120a17.79,17.79,0,0,1,9.89-16l1.689-.845a8,8,0,1,0-7.158-14.31l-1.688.844A33.7,33.7,0,0,0,272,120a8,8,0,0,0,16,0Z"/></g></svg>
