<svg id="Capa_1" enable-background="new 0 0 512 512" height="512" viewBox="0 0 512 512" width="512" xmlns="http://www.w3.org/2000/svg"><g><path d="m463.903 231.952c0-4.142-3.358-7.5-7.5-7.5-95.906 0-174.113 77.181-175.799 172.692l-6.429 6.429c-7.757 7.756-13.856 16.721-18.175 26.456-4.319-9.735-10.419-18.699-18.175-26.456l-6.429-6.429c-1.686-95.511-79.893-172.692-175.799-172.692-4.142 0-7.5 3.358-7.5 7.5 0 95.906 77.182 174.113 172.693 175.799l6.429 6.429c13.724 13.724 21.282 31.971 21.282 51.379v38.941c0 4.142 3.358 7.5 7.5 7.5s7.5-3.358 7.5-7.5v-38.941c0-19.409 7.558-37.655 21.282-51.379l6.429-6.429c95.51-1.686 172.691-79.893 172.691-175.799zm-280.564 70.725c17.064 22.277 28.445 49.124 31.949 78.359l-31.949-31.949zm-120.061-63.044c40.83 1.931 77.718 19.165 105.061 46.072v48.382l-19.261-19.261c-2.929-2.929-7.678-2.929-10.606 0-2.929 2.929-2.929 7.678 0 10.606l66.211 66.211c-77.145-9.246-137.684-73.32-141.405-152.01zm385.444 0c-1.93 40.829-19.165 77.718-46.072 105.061h-48.383l19.261-19.261c2.929-2.929 2.929-7.678 0-10.606-2.929-2.929-7.678-2.929-10.606 0l-66.211 66.211c9.248-77.145 73.322-137.685 152.011-141.405zm-109.454 120.06h46.411c-22.277 17.064-49.125 28.446-78.361 31.95z"/><path d="m174.518 245.999c1.341.991 2.903 1.469 4.452 1.469 2.298 0 4.566-1.053 6.037-3.042l12.335-16.689c4.46.274 6.908 1.302 9.883 2.558 4.024 1.699 9.032 3.812 18.183 3.812 9.156 0 14.167-2.113 18.193-3.812 3.487-1.471 6.242-2.633 12.364-2.633 6.128 0 8.885 1.162 12.376 2.633 4.028 1.698 9.042 3.811 18.203 3.811s14.174-2.113 18.202-3.811c2.983-1.257 5.438-2.286 9.912-2.56l12.335 16.689c1.471 1.99 3.739 3.042 6.037 3.042 1.548 0 3.111-.478 4.452-1.469 3.331-2.462 4.035-7.158 1.573-10.489l-42.012-56.84c-6.212-8.405-9.496-18.386-9.496-28.864v-94.723h8.532c4.142 0 7.5-3.358 7.5-7.5s-3.358-7.5-7.5-7.5h-6.884l4.304-21.521c.915-4.577-.257-9.271-3.216-12.88-2.956-3.61-7.329-5.68-11.996-5.68h-44.573c-4.667 0-9.041 2.07-11.999 5.679-2.959 3.609-4.131 8.304-3.216 12.88l4.304 21.521h-6.884c-4.142 0-7.5 3.358-7.5 7.5s3.358 7.5 7.5 7.5h8.532v94.727c0 10.328-3.381 20.59-9.52 28.896l-41.987 56.807c-2.461 3.331-1.757 8.027 1.574 10.489zm58.796-230.81c.155-.189.326-.189.399-.189h44.573c.073 0 .244 0 .399.189s.122.357.107.429l-4.892 24.463h-35.8l-4.893-24.463c-.014-.072-.047-.24.107-.429zm-6.319 172.43c8.033-10.869 12.457-24.297 12.457-37.812v-94.726h33.097v94.726c0 13.71 4.299 26.774 12.434 37.78l19.753 26.725c-2.264.671-4.128 1.453-5.815 2.164-3.49 1.471-6.248 2.633-12.376 2.633-6.129 0-8.886-1.162-12.376-2.633-4.028-1.698-9.042-3.811-18.202-3.811-9.156 0-14.167 2.113-18.193 3.812-3.487 1.471-6.242 2.633-12.364 2.633-6.115 0-8.866-1.161-12.349-2.632-1.682-.71-3.541-1.491-5.796-2.161z"/><path d="m239.968 335.645h32.064c4.142 0 7.5-3.358 7.5-7.5s-3.358-7.5-7.5-7.5h-32.064c-4.142 0-7.5 3.358-7.5 7.5s3.358 7.5 7.5 7.5z"/><path d="m239.452 264.016c0-4.142-3.358-7.5-7.5-7.5h-.08c-4.142 0-7.46 3.358-7.46 7.5s3.398 7.5 7.54 7.5 7.5-3.358 7.5-7.5z"/><path d="m264.016 199.371c4.142 0 7.5-3.358 7.5-7.5s-3.358-7.5-7.5-7.5h-.08c-4.142 0-7.46 3.358-7.46 7.5s3.398 7.5 7.54 7.5z"/></g></svg>