<?xml version="1.0"?>
<svg xmlns="http://www.w3.org/2000/svg" id="Out_line" data-name="Out line" viewBox="0 0 512 512" width="512" height="512"><rect x="56" y="392" width="16" height="104"/><path d="M473.88867,64,464,59.05566V24a8.00008,8.00008,0,0,0-8-8H424a7.98385,7.98385,0,0,0-6.50439,3.354l-.00538-.0039L379.8833,72H112a56.06322,56.06322,0,0,0-56,56V248H72V128a40.04552,40.04552,0,0,1,40-40H376v16H112a24.02718,24.02718,0,0,0-24,24V240h16V128a8.00917,8.00917,0,0,1,8-8H376V320H360V296a8.00008,8.00008,0,0,0,8-8V264a8.00008,8.00008,0,0,0-8-8V232a8.00008,8.00008,0,0,0,8-8V200a8.00008,8.00008,0,0,0-8-8H264a8.00008,8.00008,0,0,0-8,8v24a8.00008,8.00008,0,0,0,8,8v24a8.00008,8.00008,0,0,0-8,8v8h96v8H280v16h64v24H272v16H376v8h.01831A7.95349,7.95349,0,0,0,384,352h24V496h16V346.5636l38.50977-53.9137A8.003,8.003,0,0,0,464,288V204.94434L473.88867,200A39.78181,39.78181,0,0,0,496,164.22314V99.77686A39.78181,39.78181,0,0,0,473.88867,64ZM272,208h80v8H272Zm8,24h64v24H280ZM448,32V280H432V32ZM392,82.56348l24-33.59986v236.4729l-24,33.59986V82.56348ZM428.11694,296h12.33765l-28.57178,40H399.5459ZM480,164.22314a23.8698,23.8698,0,0,1-13.26758,21.46631L464,187.05566V76.94434l2.73242,1.36621A23.8698,23.8698,0,0,1,480,99.77686Z"/><path d="M368,360H216v16H368a8.00917,8.00917,0,0,1,8,8V496h16V384A24.0275,24.0275,0,0,0,368,360Z"/><rect x="88" y="392" width="16" height="104"/><path d="M144,392a24.02718,24.02718,0,0,0-24,24v80h16V416a8,8,0,0,1,16,0v80h16V416A24.02718,24.02718,0,0,0,144,392Z"/><path d="M224,224V200a8.00008,8.00008,0,0,0-8-8H120a8.00008,8.00008,0,0,0-8,8v24a8.00008,8.00008,0,0,0,8,8v8h16v-8h64v24H176v16h48v-8a8.00008,8.00008,0,0,0-8-8V232A8.00008,8.00008,0,0,0,224,224Zm-96-16h80v8H128Z"/><path d="M256,344V320a8.00008,8.00008,0,0,0,8-8V288a8.00008,8.00008,0,0,0-8-8H166.62378A23.99123,23.99123,0,0,0,144,248H109.25488a39.74371,39.74371,0,0,0-28.28515,11.71582L57.19336,283.49219a23.92042,23.92042,0,0,1-12.26367,6.563l-22.499,4.5,3.13868,15.68945,22.498-4.5a39.8701,39.8701,0,0,0,20.44043-10.939L92.2832,271.02979A23.84779,23.84779,0,0,1,109.25488,264H144a8,8,0,0,1,0,16H120a8.00008,8.00008,0,0,0-8,8,36.76925,36.76925,0,0,1-16.40625,30.65625l-4.03125,2.687,8.875,13.31348,4.03125-2.6875a52.87313,52.87313,0,0,0,13.03711-12.3711A7.97977,7.97977,0,0,0,120,320v24a8.00008,8.00008,0,0,0,8,8h56a8.00917,8.00917,0,0,1-8,8H72a8.003,8.003,0,0,0-3.15137.647l-48,20.57129,6.30274,14.70606L73.6416,376H176a24.02718,24.02718,0,0,0,24-24h48A8.00008,8.00008,0,0,0,256,344ZM144,296H248v8H128v-8Zm-8,40V320H240v16Z"/></svg>
