<svg id="outline" height="512" viewBox="0 0 512 512" width="512" xmlns="http://www.w3.org/2000/svg"><path d="m488 328h-8v-38.3877a60.99261 60.99261 0 0 0 -23.00244-47.85937 45.068 45.068 0 0 1 -16.99756-35.36523v-86.3877a8.00008 8.00008 0 0 0 -8-8h-2.23389l-14.17675-42.53027a7.99967 7.99967 0 0 0 -7.58936-5.46973h-16a7.99967 7.99967 0 0 0 -7.58936 5.46973l-14.17675 42.53027h-2.23389a8.00008 8.00008 0 0 0 -8 8v86.3877a45.07606 45.07606 0 0 1 -8 25.71679v-24.10449a56.06686 56.06686 0 0 0 -32-50.58569v-61.41431a8.00008 8.00008 0 0 0 -8-8h-2.23389l-14.17675-42.53027a7.99967 7.99967 0 0 0 -7.58936-5.46973h-16a7.99967 7.99967 0 0 0 -7.58936 5.46973l-14.17675 42.53027h-2.23389a8.00008 8.00008 0 0 0 -8 8v72.86157a55.8899 55.8899 0 0 0 -32-16.281v-16.58057a7.99057 7.99057 0 0 0 -3.563-6.65552l.00049-.00073-21.37451-14.25a113.68935 113.68935 0 0 0 -126.126 0l-21.37451 14.25.00049.00073a7.99057 7.99057 0 0 0 -3.56296 6.65552v59.35059a85.79408 85.79408 0 0 0 4.41064 27.17968 69.81306 69.81306 0 0 1 3.58936 22.11914v83.35059h-16a8.00008 8.00008 0 0 0 -8 8v32a8.00008 8.00008 0 0 0 8 8h16v72h-16a8.00008 8.00008 0 0 0 -8 8v32a8.00008 8.00008 0 0 0 8 8h464a8.00008 8.00008 0 0 0 8-8v-32a8.00008 8.00008 0 0 0 -8-8h-8v-72h8a8.00008 8.00008 0 0 0 8-8v-32a8.00008 8.00008 0 0 0 -8-8zm-136 0v-24h112v24zm-304-184h144v8.58057a55.86482 55.86482 0 0 0 -31.13843 15.41943h-112.86157zm288 96h-64v16h64v16h-80v-48h80zm-96 0h-64v16h64v16h-80v-48h80zm-80 48h80v54.09277a63.67839 63.67839 0 0 0 -40-14.09277h-40zm96 72v-72h80v40h-24a64.04206 64.04206 0 0 0 -56 33.05957c-.19788-.35645-.40564-.707-.61011-1.05957zm120-232h48v24h-48zm21.76611-48h4.46778l10.66674 32h-25.80126zm-44.76855 174.24707a60.99112 60.99112 0 0 0 23.00244-47.85937v-38.3877h48v38.3877a60.99261 60.99261 0 0 0 23.00244 47.85937 45.03955 45.03955 0 0 1 16.95239 33.75293h-111.95483v-32.91309c.33179-.28149.65881-.56909.99756-.83984zm-16.99756-46.24707h-80a40 40 0 0 1 80 0zm-40-56a55.82354 55.82354 0 0 0 -40 16.86157v-24.86157h48v8.58057a56.18481 56.18481 0 0 0 -8-.58057zm-40-48h48v24h-48zm21.76611-48h4.46778l10.66674 32h-25.80126zm-37.76611 152h-80a40 40 0 0 1 80 0zm-66.44629-80h-107.10742a97.625 97.625 0 0 1 107.10742 0zm-121.96435 89.46973a69.81306 69.81306 0 0 1 -3.58936-22.11914v-11.35059h101.41431a55.65773 55.65773 0 0 0 -5.41431 24v120h-88v-83.35059a85.79408 85.79408 0 0 0 -4.41064-27.17968zm-19.58936 126.53027h168a48.054 48.054 0 0 1 48 48v56h-16v-48a40.04552 40.04552 0 0 0 -40-40h-160zm128 104v-72h32a24.02718 24.02718 0 0 1 24 24v48zm-104-72h88v72h-88zm424 104h-448v-16h448zm-184-32v-48a24.02718 24.02718 0 0 1 24-24h16v72zm168 0h-112v-72h112zm16-88h-160a40.04552 40.04552 0 0 0 -40 40v48h-16v-56a48.054 48.054 0 0 1 48-48h168z"/><path d="m76.686 208h22.627v16h-22.627z" transform="matrix(.707 -.707 .707 .707 -126.957 125.481)"/><path d="m100.686 288h22.627v16h-22.627z" transform="matrix(.707 -.707 .707 .707 -176.5 165.892)"/><path d="m120 236.686h16v22.627h-16z" transform="matrix(.707 -.707 .707 .707 -137.872 163.147)"/><path d="m80 252.686h16v22.627h-16z" transform="matrix(.707 -.707 .707 .707 -160.902 139.549)"/><path d="m100.686 424h22.627v16h-22.627z" transform="matrix(.707 -.707 .707 .707 -272.656 205.709)"/><path d="m112 380.686h16v22.627h-16z" transform="matrix(.707 -.707 .707 .707 -242.039 199.667)"/><path d="m72 404.686h16v22.627h-16z" transform="matrix(.707 -.707 .707 .707 -270.725 178.412)"/></svg>