<svg height="512" viewBox="0 0 128 128" width="512" xmlns="http://www.w3.org/2000/svg"><g><path d="m116.737 84.037a27.474 27.474 0 0 1 -4.667 4.139 9.361 9.361 0 0 0 -6.56-2.726 9.177 9.177 0 0 0 -3.34.623l-1.153.428a1.751 1.751 0 0 0 -1.117 1.386v.045a66.853 66.853 0 0 1 -40.067.068 1.749 1.749 0 0 0 -1.907 2.72c4.562 6.137 17.525 15.664 33.558 15.664a40.973 40.973 0 0 0 15.823-3.222 1.711 1.711 0 0 0 1.855.292l.275-.127.034-.016a9.377 9.377 0 0 0 4.6-12.266 30.929 30.929 0 0 0 5.329-4.745 1.749 1.749 0 1 0 -2.666-2.266zm-51.909 8.863a69.339 69.339 0 0 0 37.445-2.075l.94.713-.61 3.129a1.749 1.749 0 0 0 1.107 1.975l3.1 1.153-.048 1.8c-17.59 7.767-33.72.334-41.934-6.695zm45.47 5.314.041-1.576a1.75 1.75 0 0 0 -1.139-1.688l-2.878-1.072.535-2.743a1.749 1.749 0 0 0 -.661-1.73l-.6-.454a5.875 5.875 0 0 1 4.7 9.261z"/><path d="m56.191 61.513a1.75 1.75 0 1 0 -3.333 1.067 15.625 15.625 0 0 0 2.858 5.22 1.75 1.75 0 0 0 2.7-2.232 12.156 12.156 0 0 1 -2.225-4.055z"/><path d="m111.106 69.867a1.749 1.749 0 0 0 2.255-1.02 41.639 41.639 0 0 0 2.3-14.77 43.864 43.864 0 0 0 -.8-7.578 1.75 1.75 0 0 0 -3.433.681 40.419 40.419 0 0 1 .737 6.979 37.8 37.8 0 0 1 -2.076 13.453 1.75 1.75 0 0 0 1.017 2.255z"/><path d="m88.615 62.229h.085a1.75 1.75 0 0 0 1.747-1.665 40.933 40.933 0 0 1 .612-5.372 38.511 38.511 0 0 1 3.302-10.192 1.75 1.75 0 1 0 -3.138-1.548 41.909 41.909 0 0 0 -3.606 11.106 44.582 44.582 0 0 0 -.666 5.838 1.75 1.75 0 0 0 1.664 1.833z"/><path d="m105.451 64.354a1.667 1.667 0 0 0 .279.023 1.751 1.751 0 0 0 1.726-1.473c.494-3.075.879-6.479 1.084-9.585a1.75 1.75 0 0 0 -3.492-.231c-.114 1.739-.4 5.253-1.047 9.261a1.75 1.75 0 0 0 1.45 2.005z"/><path d="m107 46.456h.043a1.749 1.749 0 0 0 1.707-1.792c-.037-1.566-.122-3.115-.259-4.734a1.75 1.75 0 0 0 -3.488.295c.131 1.548.212 3.028.249 4.524a1.75 1.75 0 0 0 1.748 1.707z"/><path d="m95.312 69.019h.019a1.751 1.751 0 0 0 1.75-1.731 93.6 93.6 0 0 1 1.66-15.009c.373-1.943.781-3.8 1.213-5.514a1.75 1.75 0 1 0 -3.394-.855c-.449 1.781-.871 3.7-1.256 5.709a97.262 97.262 0 0 0 -1.723 15.631 1.751 1.751 0 0 0 1.731 1.769z"/><path d="m83.329 113.662-14.535-9.728-.009-.006-31.094-20.813.455-14.384c.384-6.025 2.067-10.6 5.235-14.328.4.063.8.115 1.2.14.272.018.542.026.812.026.336 0 .669-.018 1-.045-.067.444-.143.885-.185 1.337a21.64 21.64 0 0 0 19.6 23.522q1.008.092 2.008.092a21.47 21.47 0 0 0 15.854-6.958c2.782 3.02 6.717 5.086 11.755 6.17-.6.909-1.117 1.552-1.126 1.563a1.75 1.75 0 0 0 2.722 2.2c.039-.048.6-.753 1.274-1.761.4 1.149.764 1.974.79 2.032a1.75 1.75 0 0 0 3.189-1.444c-.006-.012-.345-.77-.7-1.814.469.02.942.048 1.4.048 5.969 0 10.764-1.751 14.29-5.227 5.322-5.248 6.493-13.469 5.813-19.412-1.011-8.855-5.593-14.37-9.275-18.8-2.525-3.038-4.516-5.447-4.4-7.823 1.068-3.868 3.339-8.921 8.128-11.487a1.75 1.75 0 1 0 -1.652-3.085 19.468 19.468 0 0 0 -8.443 9.66l1.174-9.155a1.749 1.749 0 1 0 -3.47-.446l-1.179 9.192a19.437 19.437 0 0 0 -5.727-11.513 1.75 1.75 0 1 0 -2.377 2.569c3.984 3.685 4.9 9.161 4.954 13.169-.493 2.324-3.026 4.151-6.233 6.45a43.7 43.7 0 0 0 -9.645 8.631 1.748 1.748 0 0 0 -.238-.279 24.5 24.5 0 0 0 -11.454-6.091 36.824 36.824 0 0 1 4.3-9.056 1.75 1.75 0 0 0 -2.873-2 41.143 41.143 0 0 0 -4.929 10.5 24.89 24.89 0 0 0 -9.7 1.082 11.59 11.59 0 0 0 -5.481-14.85 11.561 11.561 0 0 0 -9.357-9.263 12.533 12.533 0 0 0 -22.254-1.414 11.559 11.559 0 0 0 -10.453 8 11.592 11.592 0 0 0 -5.48 17.82 12.516 12.516 0 0 0 10.829 16.143c2.657 4.084 3.74 8.812 3.366 14.769l-1.908 20.18a1.7 1.7 0 0 0 .842 1.656c-.259.489-.519.979-.751 1.462a9.784 9.784 0 0 1 -4.058-6.375 1.75 1.75 0 1 0 -3.4.825 17.8 17.8 0 0 0 1.23 3.519l-6-2.434a1.75 1.75 0 1 0 -1.316 3.243l6 2.432a17.761 17.761 0 0 0 -3.331 1.667 1.75 1.75 0 0 0 1.868 2.96 9.757 9.757 0 0 1 7.346-1.745 45.61 45.61 0 0 0 -1.688 6.772 9.639 9.639 0 0 0 5.936 10.578 16.034 16.034 0 0 0 3.151.916l2.965.541h.009l25.46 4.644h.007l25.907 4.726a5.236 5.236 0 0 0 3.852-9.5zm-48.678-45.1-.4 12.735a9.623 9.623 0 0 0 -11.129 3.259l1.578-16.686c.379-6.021-.568-10.948-2.926-15.288a12.42 12.42 0 0 0 3.144-1.182c.091.065.186.123.278.185a29.915 29.915 0 0 1 2.944 13.237 1.751 1.751 0 0 0 1.64 1.778h.112a1.749 1.749 0 0 0 1.737-1.558 29.884 29.884 0 0 1 4-11.794 12.431 12.431 0 0 0 2.477-1.011 12.477 12.477 0 0 0 1.7 1.018c-3.099 4.102-4.756 9.02-5.155 15.309zm-4.9-15.074a12.513 12.513 0 0 0 1.639.215h.014c-.318.644-.635 1.317-.938 2.047-.217-.797-.461-1.542-.712-2.26zm36.376 22.412a18.14 18.14 0 0 1 -16.435-19.717 19.091 19.091 0 0 1 .434-2.554 12.521 12.521 0 0 0 7.624-9.562 15.423 15.423 0 0 0 2.48.368 12.516 12.516 0 0 0 2.5 5.836 1.755 1.755 0 0 0 1.536.662 9.9 9.9 0 0 0 5.552-2.871 10.143 10.143 0 0 0 6.7 4.371 1.821 1.821 0 0 0 .31.027 1.752 1.752 0 0 0 1.547-.933 11.513 11.513 0 0 0 1.1-5.046 6.808 6.808 0 0 0 2.254-.239c.124.148.241.3.358.45a29.178 29.178 0 0 0 -1.237 2.758c-2.154 5.565-3.1 13.786.693 20.2a18.035 18.035 0 0 1 -15.416 6.25zm30.485-39.451c3.186-2.284 6-4.3 7.2-7.174l1.054.135a.227.227 0 0 0 .025.006h.039l1.03.133c.431 3.079 2.646 5.744 5.15 8.759 3.561 4.285 7.6 9.142 8.491 16.96.585 5.125-.368 12.156-4.8 16.523-3.564 3.514-8.9 4.843-15.869 3.947s-11.8-3.529-14.358-7.829c-3.18-5.344-2.325-12.388-.464-17.2 2.842-7.334 7.974-11.009 12.502-14.26zm-27.049 2.351a21.143 21.143 0 0 1 10.892 4.155 3.612 3.612 0 0 1 -2.169-.334 1.75 1.75 0 0 0 -2.555 1.95 8.392 8.392 0 0 1 0 4 7.164 7.164 0 0 1 -3.849-4.071 1.75 1.75 0 0 0 -1.379-1.2 1.8 1.8 0 0 0 -.291-.025 1.754 1.754 0 0 0 -1.407.709 10.592 10.592 0 0 1 -3.914 3.228c-.674-1.129-1.466-2.883-1.1-4.151a1.75 1.75 0 0 0 -2.037-2.2 8.214 8.214 0 0 1 -3.136-.189 21.408 21.408 0 0 1 10.945-1.872zm-57.348 7.526a9.022 9.022 0 0 1 -1.6-9.333 1.749 1.749 0 0 0 -.315-1.813 8.093 8.093 0 0 1 4.057-13.222 1.749 1.749 0 0 0 1.276-1.311 8.036 8.036 0 0 1 8.267-6.288 1.717 1.717 0 0 0 1.662-.988 9.033 9.033 0 0 1 16.713 1.063 1.752 1.752 0 0 0 1.523 1.19 8.07 8.07 0 0 1 7.413 7.286 1.752 1.752 0 0 0 1.1 1.461 8.093 8.093 0 0 1 2.354 13.629 1.752 1.752 0 0 0 -.544 1.759 9.045 9.045 0 0 1 .287 2.034 1.767 1.767 0 0 0 0 .206c0 .2 0 .4-.014.6a9.031 9.031 0 0 1 -6.287 8.04l-.016.005a9 9 0 0 1 -8.691-1.844 1.749 1.749 0 0 0 -2.143-.136 9.03 9.03 0 0 1 -3.121 1.349l-.068.015a8.922 8.922 0 0 1 -6.5-1.076c-.017-.012-.036-.02-.054-.031a9.276 9.276 0 0 1 -1.3-.959 1.749 1.749 0 0 0 -2.143-.136 9.019 9.019 0 0 1 -11.854-1.5zm69.81 72.34a1.739 1.739 0 0 1 -1.92 1.055l-23.779-4.337.741-1.828a1.75 1.75 0 1 0 -3.243-1.315l-1.014 2.5-21.952-4 1.591-3.925a1.75 1.75 0 0 0 -3.243-1.314l-1.864 4.6-1.585-.289a12.557 12.557 0 0 1 -2.465-.717 6.237 6.237 0 0 1 -3.8-6.756 36.536 36.536 0 0 1 6.28-15.491 6.22 6.22 0 0 1 5.113-2.655 6.358 6.358 0 0 1 .74.05l-3.518 8.676a1.75 1.75 0 1 0 3.244 1.314l3.54-8.733c.194.115.393.221.579.346l15.563 10.41-1.336 3.3a1.75 1.75 0 1 0 3.243 1.315l1.06-2.627 11.66 7.8-1.76 4.347a1.75 1.75 0 1 0 3.244 1.315l1.487-3.67 12.749 8.533a1.744 1.744 0 0 1 .645 2.096z"/><path d="m43.676 96.438a1.748 1.748 0 0 0 -2.276.962l-1.472 3.63a1.75 1.75 0 1 0 3.243 1.315l1.472-3.63a1.749 1.749 0 0 0 -.967-2.277z"/></g></svg>