<svg  enable-background="new 0 0 512 512" height="512" viewBox="0 0 512 512" width="512" xmlns="http://www.w3.org/2000/svg"><g><path d="m494.5 60.514h-168.178c-4.143 0-7.5 3.358-7.5 7.5s3.357 7.5 7.5 7.5h168.178c1.379 0 2.5 1.122 2.5 2.5v45.527h-482v-45.527c0-1.378 1.121-2.5 2.5-2.5h274.3c4.143 0 7.5-3.358 7.5-7.5s-3.357-7.5-7.5-7.5h-274.3c-9.649 0-17.5 7.851-17.5 17.5v355.973c0 9.649 7.851 17.5 17.5 17.5h361.295c4.143 0 7.5-3.358 7.5-7.5s-3.357-7.5-7.5-7.5h-361.295c-1.379 0-2.5-1.122-2.5-2.5v-295.446h482v295.446c0 1.378-1.121 2.5-2.5 2.5h-81.182c-4.143 0-7.5 3.358-7.5 7.5s3.357 7.5 7.5 7.5h81.182c9.649 0 17.5-7.851 17.5-17.5v-355.973c0-9.65-7.851-17.5-17.5-17.5z"/><path d="m47.433 92.027c-4.143 0-7.5 3.358-7.5 7.5s3.357 7.5 7.5 7.5h.113c4.143 0 7.5-3.358 7.5-7.5s-3.357-7.5-7.5-7.5z"/><path d="m70.076 92.027c-4.143 0-7.5 3.358-7.5 7.5s3.357 7.5 7.5 7.5h.112c4.143 0 7.5-3.358 7.5-7.5s-3.357-7.5-7.5-7.5z"/><path d="m92.72 92.027c-4.143 0-7.5 3.358-7.5 7.5s3.357 7.5 7.5 7.5h.112c4.143 0 7.5-3.358 7.5-7.5s-3.357-7.5-7.5-7.5z"/><path d="m464.567 107.027c4.143 0 7.5-3.358 7.5-7.5s-3.357-7.5-7.5-7.5h-13.956c-4.143 0-7.5 3.358-7.5 7.5s3.357 7.5 7.5 7.5z"/><path d="m209.229 182.046c0-9.649-7.851-17.5-17.5-17.5h-128.194c-9.649 0-17.5 7.851-17.5 17.5v60.376c0 4.142 3.357 7.5 7.5 7.5s7.5-3.358 7.5-7.5v-60.376c0-1.378 1.121-2.5 2.5-2.5h128.193c1.379 0 2.5 1.122 2.5 2.5v128.192c0 1.378-1.121 2.5-2.5 2.5h-128.193c-1.379 0-2.5-1.122-2.5-2.5v-33.293c0-4.142-3.357-7.5-7.5-7.5s-7.5 3.358-7.5 7.5v33.293c0 9.649 7.851 17.5 17.5 17.5h128.193c9.649 0 17.5-7.851 17.5-17.5v-128.192z"/><path d="m191.728 335.784h-128.192c-9.649 0-17.5 7.851-17.5 17.5v41.326c0 9.649 7.851 17.5 17.5 17.5h128.191c9.649 0 17.5-7.851 17.5-17.5v-41.326c.001-9.65-7.85-17.5-17.499-17.5zm2.5 58.825c0 1.378-1.121 2.5-2.5 2.5h-128.192c-1.379 0-2.5-1.122-2.5-2.5v-41.326c0-1.378 1.121-2.5 2.5-2.5h128.191c1.379 0 2.5 1.122 2.5 2.5v41.326z"/><path d="m235.916 164.546c-9.649 0-17.5 7.851-17.5 17.5v212.563c0 9.649 7.851 17.5 17.5 17.5h63.153c9.649 0 17.5-7.851 17.5-17.5v-212.563c0-9.649-7.851-17.5-17.5-17.5zm65.653 17.5v212.563c0 1.378-1.121 2.5-2.5 2.5h-63.153c-1.379 0-2.5-1.122-2.5-2.5v-212.563c0-1.378 1.121-2.5 2.5-2.5h63.153c1.379 0 2.5 1.121 2.5 2.5z"/><path d="m342.606 232.47h95.751c9.649 0 17.5-7.851 17.5-17.5v-32.924c0-9.649-7.851-17.5-17.5-17.5h-95.751c-9.649 0-17.5 7.851-17.5 17.5v32.924c0 9.649 7.851 17.5 17.5 17.5zm-2.5-50.424c0-1.378 1.121-2.5 2.5-2.5h95.751c1.379 0 2.5 1.122 2.5 2.5v32.924c0 1.378-1.121 2.5-2.5 2.5h-95.751c-1.379 0-2.5-1.122-2.5-2.5z"/><path d="m325.106 394.609c0 9.649 7.851 17.5 17.5 17.5h95.751c9.649 0 17.5-7.851 17.5-17.5v-136.301c0-9.649-7.851-17.5-17.5-17.5h-95.751c-9.649 0-17.5 7.851-17.5 17.5zm15-136.301c0-1.378 1.121-2.5 2.5-2.5h95.751c1.379 0 2.5 1.122 2.5 2.5v136.301c0 1.378-1.121 2.5-2.5 2.5h-95.751c-1.379 0-2.5-1.122-2.5-2.5z"/></g></svg>